<?xml version="1.0" standalone="no"?><!-- Generator: Gravit.io --><svg xmlns="http://www.w3.org/2000/svg" xmlns:xlink="http://www.w3.org/1999/xlink" style="isolation:isolate" viewBox="490.557 213.305 476.443 281.327" width="476.443" height="281.327"><defs><clipPath id="_clipPath_ic11cOVWXF1Lz2owgjldAZGDoccjz8Iq"><rect x="490.557" y="213.305" width="476.443" height="281.327"/></clipPath></defs><g clip-path="url(#_clipPath_ic11cOVWXF1Lz2owgjldAZGDoccjz8Iq)"><path d="M 523.304 489.102 L 492.898 458.696 C 489.776 455.574 489.776 450.504 492.898 447.382 L 670.382 269.898 C 673.504 266.776 678.574 266.776 681.696 269.898 L 712.102 300.304 C 715.224 303.426 715.224 308.496 712.102 311.618 L 534.618 489.102 C 531.496 492.224 526.426 492.224 523.304 489.102 Z" style="stroke:none;fill:#320A28;stroke-miterlimit:10;"/><path d="M 691.524 244.826 L 720.383 215.967 C 723.932 212.418 729.694 212.418 733.243 215.967 L 964.338 447.062 C 967.887 450.611 967.887 456.374 964.338 459.923 L 935.48 488.781 C 931.931 492.33 926.168 492.33 922.619 488.781 L 691.524 257.686 C 687.975 254.137 687.975 248.375 691.524 244.826 Z" style="stroke:none;fill:#320A28;stroke-miterlimit:10;"/><path d="M 662.746 492.746 L 630.14 460.14 C 627.625 457.625 627.625 453.542 630.14 451.027 L 743.527 337.64 C 746.042 335.125 750.125 335.125 752.64 337.64 L 785.246 370.246 C 787.761 372.761 787.761 376.845 785.246 379.359 L 671.859 492.746 C 669.345 495.261 665.261 495.261 662.746 492.746 Z" style="stroke:none;fill:#F7B267;stroke-miterlimit:10;"/><path d="M 802.797 490.822 L 767.014 455.039 C 765.376 453.401 765.376 450.741 767.014 449.103 L 813.056 403.061 C 814.694 401.423 817.354 401.423 818.992 403.061 L 854.775 438.844 C 856.413 440.482 856.413 443.142 854.775 444.78 L 808.733 490.822 C 807.095 492.46 804.435 492.46 802.797 490.822 Z" style="stroke:none;fill:#EF476F;stroke-miterlimit:10;"/></g></svg>