<?xml version="1.0" standalone="no"?><!-- Generator: Gravit.io --><svg xmlns="http://www.w3.org/2000/svg" xmlns:xlink="http://www.w3.org/1999/xlink" style="isolation:isolate" viewBox="428.778 190 550 338.596" width="550" height="338.596"><defs><clipPath id="_clipPath_7U1zo1DFxPkLkQMS5qkc7Gs42KGRqHCu"><rect x="428.778" y="190" width="550" height="338.596"/></clipPath></defs><g clip-path="url(#_clipPath_7U1zo1DFxPkLkQMS5qkc7Gs42KGRqHCu)"><path d="M 658.778 190 L 748.778 190 C 875.719 190 978.778 293.06 978.778 420 L 978.778 428.596 C 978.778 483.788 933.97 528.596 878.778 528.596 L 528.778 528.596 C 473.587 528.596 428.778 483.788 428.778 428.596 L 428.778 420 C 428.778 293.06 531.838 190 658.778 190 Z" style="stroke:none;fill:#EBEBEB;stroke-miterlimit:10;"/><g><path d="M 498.304 494.431 L 467.898 464.025 C 464.776 460.903 464.776 455.834 467.898 452.712 L 645.382 275.228 C 648.504 272.106 653.574 272.106 656.696 275.228 L 687.102 305.633 C 690.224 308.756 690.224 313.825 687.102 316.947 L 509.618 494.431 C 506.496 497.553 501.426 497.553 498.304 494.431 Z" style="stroke:none;fill:#320A28;stroke-miterlimit:10;"/><path d="M 666.524 250.155 L 695.383 221.297 C 698.932 217.748 704.694 217.748 708.243 221.297 L 939.338 452.392 C 942.887 455.94 942.887 461.703 939.338 465.252 L 910.48 494.111 C 906.931 497.66 901.168 497.66 897.619 494.111 L 666.524 263.016 C 662.975 259.467 662.975 253.704 666.524 250.155 Z" style="stroke:none;fill:#320A28;stroke-miterlimit:10;"/><path d="M 637.746 498.076 L 605.14 465.47 C 602.625 462.955 602.625 458.871 605.14 456.356 L 718.527 342.97 C 721.042 340.455 725.125 340.455 727.64 342.97 L 760.246 375.576 C 762.761 378.09 762.761 382.174 760.246 384.689 L 646.859 498.076 C 644.345 500.59 640.261 500.59 637.746 498.076 Z" style="stroke:none;fill:#F7B267;stroke-miterlimit:10;"/><path d="M 777.797 496.152 L 742.014 460.369 C 740.376 458.73 740.376 456.07 742.014 454.432 L 788.056 408.39 C 789.694 406.752 792.354 406.752 793.992 408.39 L 829.775 444.173 C 831.413 445.811 831.413 448.471 829.775 450.11 L 783.733 496.152 C 782.095 497.79 779.435 497.79 777.797 496.152 Z" style="stroke:none;fill:#EF476F;stroke-miterlimit:10;"/></g></g></svg>